<?xml version="1.0" standalone="no"?>
<!DOCTYPE svg PUBLIC "-//W3C//DTD SVG 20010904//EN"
 "http://www.w3.org/TR/2001/REC-SVG-20010904/DTD/svg10.dtd">
<svg version="1.0" xmlns="http://www.w3.org/2000/svg"
 width="700.000000pt" height="700.000000pt" viewBox="0 0 700.000000 700.000000"
 preserveAspectRatio="xMidYMid meet">
<metadata>
Created by potrace 1.14, written by Peter Selinger 2001-2017
</metadata>
<g transform="translate(0.000000,700.000000) scale(0.100000,-0.100000)"
fill="#000000" stroke="none">
<path d="M2112 5585 c-74 -16 -152 -51 -219 -96 -26 -18 -174 -158 -329 -311
l-280 -278 -642 0 -642 0 0 -1400 0 -1400 343 0 c365 0 442 7 517 45 73 37
145 123 170 202 11 36 20 74 20 84 0 16 8 19 50 19 l50 0 472 -427 c260 -234
503 -446 540 -470 290 -188 659 -200 975 -33 l92 49 80 -54 c50 -33 113 -65
163 -81 73 -24 99 -28 208 -28 109 0 136 4 206 27 96 32 186 88 269 168 l61
58 49 -15 c134 -41 309 -24 443 42 100 49 173 121 360 352 180 225 196 248
228 340 l23 67 316 3 c304 2 315 2 315 -17 0 -10 9 -48 20 -84 25 -79 97 -165
170 -202 75 -38 152 -45 518 -45 l342 0 0 1400 0 1400 -662 0 -662 0 -301 299
c-276 274 -306 301 -375 335 -142 69 -73 66 -1520 65 -1064 0 -1317 -3 -1368
-14z m693 -563 c-33 -31 -142 -133 -243 -225 -117 -108 -200 -194 -232 -238
-176 -252 -188 -591 -29 -855 150 -249 493 -413 779 -374 160 22 299 90 434
213 41 37 77 67 80 67 3 0 272 -216 598 -481 348 -282 599 -492 607 -509 8
-16 11 -39 7 -53 -3 -14 -65 -99 -138 -189 -180 -224 -184 -228 -229 -228 -40
0 -58 12 -226 152 -45 37 -86 68 -90 68 -5 0 -84 -92 -176 -204 -92 -112 -179
-211 -193 -221 -27 -17 -86 -22 -125 -10 -13 4 -115 86 -226 181 -111 96 -206
174 -210 173 -4 0 -44 -45 -88 -101 -141 -176 -221 -235 -358 -258 -83 -15
-176 -1 -255 38 -33 16 -117 84 -225 182 -95 85 -340 307 -545 493 l-373 337
-149 0 -150 0 0 700 0 700 233 0 232 0 335 336 c184 184 349 341 365 349 23
10 102 14 340 14 l310 1 -60 -58z m2305 -297 l345 -345 247 0 248 0 0 -700 0
-700 -378 0 c-375 0 -379 0 -398 21 -10 12 -279 233 -596 490 -317 258 -579
473 -582 478 -3 5 30 41 73 80 57 51 84 84 96 116 25 63 14 121 -32 176 -145
176 -219 216 -316 171 -20 -9 -179 -147 -353 -307 -174 -159 -337 -301 -362
-315 -55 -29 -152 -38 -216 -20 -100 28 -169 127 -170 240 0 113 8 123 431
511 207 189 397 359 422 377 97 70 106 71 681 71 l515 1 345 -345z m-4496
-1948 c47 -26 86 -94 86 -146 -1 -183 -250 -242 -329 -78 -27 56 -27 103 2
158 30 57 84 89 152 89 33 0 63 -8 89 -23z m5950 0 c47 -26 86 -94 86 -146 -1
-183 -250 -242 -329 -78 -27 56 -27 103 2 158 30 57 84 89 152 89 33 0 63 -8
89 -23z"/>
</g>
</svg>
